<svg viewBox="0 0 32.7 45.2" xmlns="http://www.w3.org/2000/svg"><rect x=".5" y=".5" width="31.7" height="44.2" rx="0" ry="0" fill="none" stroke="#000"/><path d="m12.4-5.7 26.8 28.6V-5.2z" fill="#fff" style="mix-blend-mode:normal"/><g fill="none" stroke="#000"><path d="M18 0v15.5h14.7M18.3.4l14 15"/><g stroke-width=".9"><path d="M2 2.7h14M2 4.7h14M2 6.7h14M2 8.7h14M2 10.7h14M2 12.7h14M2 14.7h14"/></g></g><path d="M11.9 28.8H8.6v-1l.8-.1 1.9-2-1.8-2-.7-.2v-1h3.1v1h-.5l1 1.2.9-1.2h-.6v-1h3v1l-.7.1-1.6 2 1.8 2 .8.2v1h-3.3v-1h.6l-1-1.3-1 1.3h.6zm0 10H8.6v-1l.8-.1 1.8-2-1.7-2.1h-.8v-1.1H12v1h-.5l.9 1.2 1-1.2h-.6v-1h3v1l-.7.1-1.6 2 1.8 2 .8.2v1h-3.3v-1h.6l-1-1.3-1 1.3h.6zm8.1-10h-3.5v-1l1-.2v-6.1l-1-.2v-1h6.8v2.3H22l-.1-1h-2.8v2.3h3v1.4h-3v2.3l1 .2zm7.4 0H24v-1l1-.2v-6.1l-1-.2v-1h6.8v2.3h-1.3v-1h-2.9v2.3h3v1.4h-3v2.3l1 .2zm-5 10h-5.8v-1.1l2.8-3a14.5 14.5 0 0 0 .6-.8l.4-.7a1.8 1.8 0 0 0 0-.5v-.5l-.2-.4c-.2-.2-.5-.3-.9-.3H19a1 1 0 0 0-.5.4c-.2.1-.2.2-.3.4a2 2 0 0 0 0 .6h-1.7a3 3 0 0 1 .1-1 2.5 2.5 0 0 1 2.1-1.7 3.8 3.8 0 0 1 2.2.3 2.4 2.4 0 0 1 1 .8 2.3 2.3 0 0 1 .3 1.3c0 .4 0 .7-.2 1a3.3 3.3 0 0 1-.5.8 4.8 4.8 0 0 1-.4.5 16.7 16.7 0 0 1-.7.8l-1.6 1.8H21v-.8h1.4zm6.7 0h-5.9v-1.1l2.8-3a14.2 14.2 0 0 0 .7-.8l.3-.7a1.8 1.8 0 0 0 .1-.5v-.5l-.3-.4c-.2-.2-.4-.3-.8-.3h-.4a1 1 0 0 0-.5.4l-.2.4a2 2 0 0 0-.1.6h-1.7a3 3 0 0 1 .2-1 2.5 2.5 0 0 1 2-1.7 3.8 3.8 0 0 1 2.2.3 2.4 2.4 0 0 1 1 .8 2.3 2.3 0 0 1 .3 1.3l-.1 1a3.3 3.3 0 0 1-.5.8 4.8 4.8 0 0 1-.4.5 16.7 16.7 0 0 1-.7.8l-1.7 1.8h2.3v-.8h1.4zM2 25.5v-1.9l.1-1c.1-.6.4-1.1.7-1.5.5-.5 1-.8 1.7-.9H5c1 0 1.6.3 2.1.9.3.2.5.6.6 1a4.4 4.4 0 0 1 .2 1.5v2.9l-.3.9-.4.7c-.5.4-1 .8-1.7.8A3.6 3.6 0 0 1 4 29L3 28c-.4-.5-.6-1.1-.7-2v-.6zm0 10v-1.9l.1-1c.1-.6.3-1.1.7-1.5.4-.5 1-.8 1.7-.9H5A2.7 2.7 0 0 1 7.7 32a4.4 4.4 0 0 1 .2 1.5v2.9l-.4.9-.4.7c-.4.4-1 .8-1.6.8A3.6 3.6 0 0 1 4 39c-.5-.2-.9-.5-1.2-.8-.4-.5-.7-1.1-.7-2v-.6zm4.1-9.8v-2.3A3.1 3.1 0 0 0 6 22a1 1 0 0 0-.3-.4 1 1 0 0 0-.6-.1h-.4a1 1 0 0 0-.4.5l-.2.3a3.6 3.6 0 0 0-.1 1.1v2.8c0 .4.1.7.3 1a1 1 0 0 0 .8.4h.4l.5-.4.2-.4.1-1.1zm0 10v-2.3a3.1 3.1 0 0 0-.3-1.4 1 1 0 0 0-.3-.4 1 1 0 0 0-.6-.1h-.4a1 1 0 0 0-.5.5l-.1.3a3.6 3.6 0 0 0-.2 1.1v2.8c0 .4.2.7.3 1a1 1 0 0 0 1 .4h.3l.5-.4.2-.4v-1.1z"/></svg>